# 3ds Max Wavefront OBJ Exporter v0.97b - (c)2007 guruware
# File Created: 08.01.2020 17:07:32

mtllib LivingRoom_WallA.mtl

#
# object LivingRoom_WallA
#

v  540.0001 349.9999 -20.0000
v  687.9998 349.9999 -20.0000
v  687.9998 261.5000 -20.0000
v  540.0000 261.4999 -20.0000
v  907.9999 349.9999 -20.0000
v  1060.0000 349.9999 -20.0000
v  1060.0000 261.5000 -20.0000
v  907.9999 261.5000 -20.0000
v  687.9998 91.5000 -20.0000
v  540.0000 91.5000 -20.0000
v  1060.0000 91.5000 -20.0000
v  907.9999 91.5000 -20.0000
v  687.9998 -0.0000 -20.0000
v  540.0001 -0.0000 -20.0000
v  1060.0000 -0.0000 -20.0000
v  907.9999 -0.0000 -20.0000
# 16 vertices

vn 0.0000 0.0000 -1.0000
# 1 vertex normals

vt 3.1000 2.2500 -1.2650
vt 1.6200 2.2500 -1.2650
vt 1.6200 1.3650 -1.2650
vt 3.1000 1.3650 -1.2650
vt -0.5800 2.2500 -1.2650
vt -2.1000 2.2500 -1.2650
vt -2.1000 1.3650 -1.2650
vt -0.5800 1.3650 -1.2650
vt 1.6200 -0.3350 -1.2650
vt 3.1000 -0.3350 -1.2650
vt -2.1000 -0.3350 -1.2650
vt -0.5800 -0.3350 -1.2650
vt 1.6200 -1.2500 -1.2650
vt 3.1000 -1.2500 -1.2650
vt -2.1000 -1.2500 -1.2650
vt -0.5800 -1.2500 -1.2650
# 16 texture coords

o LivingRoom_WallA
g LivingRoom_WallA
usemtl wire_160160160
s 16
f 1/1/1 2/2/1 3/3/1 4/4/1 
f 5/5/1 6/6/1 7/7/1 8/8/1 
f 2/2/1 5/5/1 8/8/1 3/3/1 
f 3/3/1 9/9/1 10/10/1 4/4/1 
f 7/7/1 11/11/1 12/12/1 8/8/1 
f 9/9/1 13/13/1 14/14/1 10/10/1 
f 11/11/1 15/15/1 16/16/1 12/12/1 
f 12/12/1 16/16/1 13/13/1 9/9/1 
# 8 polygons

