# 3ds Max Wavefront OBJ Exporter v0.97b - (c)2007 guruware
# File Created: 27.01.2020 16:53:09

mtllib NewRoom_Wall_Change2.mtl

#
# object NewRoom_Wall
#

v  -80.0000 300.0000 0.0000
v  -80.0000 261.5000 0.0000
v  190.0000 261.5000 0.0000
v  190.0000 300.0000 0.0000
v  -80.0000 0.0000 -0.0000
v  -80.0000 10.7806 -0.0000
v  -80.0000 10.7807 250.0000
v  -80.0000 0.0000 250.0000
v  190.0000 261.5000 -190.0000
v  190.0000 300.0000 -190.0000
v  580.0000 261.5000 -190.0000
v  580.0000 300.0000 -190.0000
v  580.0000 261.5000 -51.3384
v  580.0000 300.0000 -51.3384
v  580.0000 300.0000 160.0000
v  580.0000 261.5000 160.0000
v  854.2731 261.5000 160.0000
v  854.2731 300.0000 160.0000
v  580.0000 0.0000 -51.3384
v  580.0000 0.0000 31.5452
v  580.0000 10.7806 31.5452
v  580.0000 10.7806 -51.3384
v  -80.0000 91.5000 -0.0000
v  190.0000 91.5000 0.0000
v  -80.0000 300.0000 250.0001
v  -80.0000 261.5000 250.0000
v  190.0000 91.5000 -190.0000
v  580.0000 91.5000 -190.0000
v  580.0000 91.5000 -51.3384
v  580.0000 91.5000 160.0000
v  854.2731 91.5000 160.0000
v  580.0000 300.0000 111.2943
v  580.0000 261.5000 111.2943
v  580.0000 0.0000 111.2943
v  580.0000 0.0000 160.0000
v  580.0000 10.7806 160.0000
v  580.0000 10.7806 111.2943
v  -80.0000 91.5000 250.0000
v  -80.0000 87.5676 -0.0000
v  190.0000 87.5676 0.0000
v  190.0000 87.5676 -190.0000
v  580.0000 87.5676 -190.0000
v  580.0000 87.5676 -51.3384
v  580.0000 14.8488 160.0000
v  854.2731 14.8488 160.0000
v  580.0000 91.5000 111.2943
v  -80.0000 14.8488 -0.0000
v  -80.0000 87.5676 250.0000
v  -80.0000 14.8488 250.0000
v  580.0000 14.8488 31.5452
v  580.0000 87.5676 31.5453
v  580.0000 14.8488 -51.3384
v  580.0000 14.8488 111.2943
v  190.0000 10.7806 0.0000
v  190.0000 14.8488 0.0000
v  190.0000 10.7806 -190.0000
v  190.0000 14.8488 -190.0000
v  580.0000 10.7806 -190.0000
v  580.0000 14.8488 -190.0000
v  854.2731 10.7806 160.0000
v  190.0000 0.0000 -0.0000
v  190.0000 0.0000 -190.0000
v  580.0000 0.0000 -190.0000
v  854.2731 0.0000 160.0000
v  580.0001 261.5000 111.2943
v  580.0001 261.5000 -51.3384
v  600.0001 261.5000 -51.3384
v  600.0001 261.5000 111.2941
v  600.0001 14.8487 111.2941
v  580.0001 14.8488 111.2943
v  580.0001 91.5000 -51.3384
v  580.0001 91.5000 31.5453
v  600.0001 91.5000 31.5452
v  600.0001 91.5000 -51.3385
v  580.0001 14.8488 31.5453
v  600.0001 14.8488 31.5452
v  600.0001 14.8487 111.2942
v  577.1993 87.5676 31.5453
v  577.1993 91.5000 31.5453
v  577.1993 91.5000 -51.3384
v  577.1993 87.5676 -51.3384
v  580.0000 91.5000 31.5453
v  577.1993 10.7806 111.2943
v  577.1993 14.8488 111.2943
v  577.1993 14.8488 31.5453
v  577.1993 10.7807 31.5453
v  580.0000 14.8488 31.5453
v  580.0000 10.7806 31.5453
# 88 vertices

vn 0.7071 0.0000 0.7071
vn 0.7071 -0.0000 0.7071
vn 1.0000 0.0000 -0.0000
vn -0.7071 -0.0000 0.7071
vn -1.0000 0.0000 -0.0000
vn 0.0000 -0.0000 1.0000
vn 1.0000 0.0000 0.0000
vn 1.0000 -0.0000 0.0000
vn -0.0000 -0.7071 -0.7071
vn 0.0000 -0.7071 0.7071
vn -0.0000 0.0000 -1.0000
vn 0.0000 0.7071 0.7071
vn 0.0000 1.0000 -0.0000
vn 0.0000 1.0000 0.0000
vn -0.5774 -0.5773 0.5773
vn -0.5774 0.5774 0.5774
vn -0.5774 0.5774 -0.5774
vn -0.5774 -0.5774 -0.5774
vn 0.0000 0.7071 -0.7071
vn 0.0000 -0.7071 -0.7071
vn -0.0000 -0.7071 0.7071
vn -0.5774 -0.5773 0.5774
vn -0.5773 0.5774 0.5774
vn -0.5773 0.5774 -0.5774
vn -0.5774 -0.5773 -0.5773
# 25 vertex normals

vt -3.6563 2.0000 0.3842
vt -3.6563 1.6150 0.3842
vt -0.9563 1.6150 0.3842
vt -0.9563 2.0000 0.3842
vt 0.3842 -1.0000 -3.6563
vt 0.3842 -0.8922 -3.6563
vt -2.1158 -0.8922 -3.6563
vt -2.1158 -1.0000 -3.6563
vt 0.3842 2.0000 -0.9563
vt 0.3842 1.6150 -0.9563
vt 2.2842 1.6150 -0.9563
vt 2.2842 2.0000 -0.9563
vt -0.9563 2.0000 2.2842
vt -0.9563 1.6150 2.2842
vt 2.9437 1.6150 2.2842
vt 2.9437 2.0000 2.2842
vt -1.2842 2.0000 2.9437
vt -1.2842 1.6150 2.9437
vt 0.1024 1.6150 2.9437
vt 0.1024 2.0000 2.9437
vt 2.9437 2.0000 -1.2158
vt 2.9437 1.6150 -1.2158
vt 5.6864 1.6150 -1.2158
vt 5.6864 2.0000 -1.2158
vt 0.1024 -1.0000 2.9437
vt 0.9224 -1.0000 2.9437
vt 0.9224 -0.8922 2.9437
vt 0.1024 -0.8922 2.9437
vt -3.6563 -0.0850 0.3842
vt -0.9563 -0.0850 0.3842
vt 0.3842 1.6150 -3.6563
vt 0.3842 2.0000 -3.6563
vt -2.1158 2.0000 -3.6563
vt -2.1158 1.6150 -3.6563
vt 0.3842 -0.0850 -0.9563
vt 2.2842 -0.0850 -0.9563
vt -0.9563 -0.0850 2.2842
vt 2.9437 -0.0850 2.2842
vt -1.2842 -0.0850 2.9437
vt 0.1024 -0.0850 2.9437
vt 2.9437 -0.0850 -1.2158
vt 5.6864 -0.0850 -1.2158
vt 2.2158 1.6150 2.9437
vt 2.2158 2.0000 2.9437
vt 1.7421 2.0000 2.9437
vt 1.7421 1.6150 2.9437
vt 1.7421 -1.0000 2.9437
vt 2.2158 -1.0000 2.9437
vt 2.2158 -0.8922 2.9437
vt 1.7421 -0.8922 2.9437
vt 0.3842 -0.0850 -3.6563
vt -2.1158 -0.0850 -3.6563
vt -3.6563 -0.1243 0.3842
vt -0.9563 -0.1243 0.3842
vt 0.3842 -0.1243 -0.9563
vt 2.2842 -0.1243 -0.9563
vt -0.9563 -0.1243 2.2842
vt 2.9437 -0.1243 2.2842
vt -1.2842 -0.1243 2.9437
vt 0.1024 -0.1243 2.9437
vt 2.9437 -0.8515 -1.2158
vt 5.6864 -0.8515 -1.2158
vt 2.2158 -0.0850 2.9437
vt 1.7421 -0.0850 2.9437
vt 0.3842 -0.8515 -3.6563
vt 0.3842 -0.1243 -3.6563
vt -2.1158 -0.1243 -3.6563
vt -2.1158 -0.8515 -3.6563
vt 0.9224 -0.8515 2.9437
vt 0.9224 -0.1243 2.9437
vt 0.1024 -0.8515 2.9437
vt 2.2158 -0.8515 2.9437
vt 1.7421 -0.8515 2.9437
vt -3.6563 -0.8515 0.3842
vt -3.6563 -0.8922 0.3842
vt -0.9563 -0.8922 0.3842
vt -0.9563 -0.8515 0.3842
vt 0.3842 -0.8515 -0.9563
vt 0.3842 -0.8922 -0.9563
vt 2.2842 -0.8922 -0.9563
vt 2.2842 -0.8515 -0.9563
vt -0.9563 -0.8515 2.2842
vt -0.9563 -0.8922 2.2842
vt 2.9437 -0.8922 2.2842
vt 2.9437 -0.8515 2.2842
vt -1.2842 -0.8515 2.9437
vt -1.2842 -0.8922 2.9437
vt 2.9437 -0.8922 -1.2158
vt 5.6864 -0.8922 -1.2158
vt -3.6563 -1.0000 0.3842
vt -0.9563 -1.0000 0.3842
vt 0.3842 -1.0000 -0.9563
vt 2.2842 -1.0000 -0.9563
vt -0.9563 -1.0000 2.2842
vt 2.9437 -1.0000 2.2842
vt -1.2842 -1.0000 2.9437
vt 2.9437 -1.0000 -1.2158
vt 5.6864 -1.0000 -1.2158
vt -1.9437 -0.7421 1.6150
vt -1.9437 0.8976 1.6150
vt -2.1437 0.8976 1.6150
vt -2.1437 -0.7421 1.6150
vt -2.1437 -0.8515 -0.7421
vt -1.9437 -0.8515 -0.7421
vt -1.9437 1.6150 -0.7421
vt -2.1437 1.6150 -0.7421
vt 2.9437 0.8976 -0.0850
vt 2.9437 0.0776 -0.0850
vt 3.1437 0.0776 -0.0850
vt 3.1437 0.8976 -0.0850
vt 2.9437 1.6150 0.8976
vt 2.9437 -0.0850 0.8976
vt 3.1437 -0.0850 0.8976
vt 3.1437 1.6150 0.8976
vt 3.1437 -0.0850 0.0776
vt 2.9437 -0.0850 0.0776
vt 2.9437 -0.8515 0.0776
vt 3.1437 -0.8515 0.0776
vt 3.1437 0.0776 -0.8515
vt 2.9437 0.0776 -0.8515
vt 2.9437 -0.7421 -0.8515
vt 3.1437 -0.7421 -0.8515
vt 0.9224 -0.1243 2.9157
vt 0.9224 -0.0850 2.9157
vt 0.1024 -0.0850 2.9157
vt 0.1024 -0.1243 2.9157
vt 2.9157 0.8976 -0.0850
vt 2.9157 0.0776 -0.0850
vt -1.9437 -0.0850 0.8976
vt -1.9437 -0.1243 0.8976
vt -1.9157 -0.1243 0.8976
vt -1.9157 -0.0850 0.8976
vt -1.9437 0.8976 -0.1243
vt -1.9437 0.0776 -0.1243
vt -1.9157 0.0776 -0.1243
vt -1.9157 0.8976 -0.1243
vt 2.9437 -0.1243 0.0776
vt 2.9157 -0.0850 0.0776
vt 2.9157 -0.1243 0.0776
vt 1.7421 -0.8922 2.9157
vt 1.7421 -0.8515 2.9157
vt 0.9224 -0.8515 2.9157
vt 0.9224 -0.8922 2.9157
vt 2.9157 0.0776 -0.8515
vt 2.9157 -0.7421 -0.8515
vt -1.9437 -0.8515 0.0776
vt -1.9437 -0.8922 0.0776
vt -1.9157 -0.8922 0.0776
vt -1.9157 -0.8515 0.0776
vt -1.9437 0.0776 -0.8922
vt -1.9437 -0.7421 -0.8922
vt -1.9157 -0.7421 -0.8922
vt -1.9157 0.0776 -0.8922
vt 2.9437 -0.8922 -0.7421
vt 2.9437 -0.8515 -0.7421
vt 2.9157 -0.8515 -0.7421
vt 2.9157 -0.8922 -0.7421
# 157 texture coords

o NewRoom_Wall
g NewRoom_Wall
usemtl wire_113135006
s 1
f 1/1/1 2/2/1 3/3/2 4/4/2 
s off
f 5/5/2 6/6/2 7/7/3 8/8/3 
f 4/9/2 3/10/2 9/11/2 10/12/2 
f 10/13/2 9/14/2 11/15/4 12/16/4 
f 12/17/4 11/18/4 13/19/5 14/20/5 
f 15/21/4 16/22/4 17/23/6 18/24/6 
f 19/25/5 20/26/5 21/27/5 22/28/5 
s 1
f 2/2/1 23/29/2 24/30/2 3/3/2 
s off
f 2/31/1 1/32/1 25/33/7 26/34/7 
f 3/10/2 24/35/2 27/36/2 9/11/2 
f 9/14/2 27/37/2 28/38/4 11/15/4 
f 11/18/4 28/39/4 29/40/5 13/19/5 
f 16/22/4 30/41/4 31/42/6 17/23/6 
f 16/43/4 15/44/4 32/45/5 33/46/5 
f 34/47/5 35/48/4 36/49/4 37/50/5 
f 32/45/5 14/20/5 13/19/5 33/46/5 
f 23/51/2 2/31/1 26/34/7 38/52/3 
s 1
f 23/29/2 39/53/2 40/54/2 24/30/2 
s off
f 24/35/2 40/55/2 41/56/2 27/36/2 
f 27/37/2 41/57/2 42/58/4 28/38/4 
f 28/39/4 42/59/4 43/60/5 29/40/5 
f 30/41/4 44/61/4 45/62/6 31/42/6 
f 30/63/4 16/43/4 33/46/5 46/64/5 
f 20/26/5 34/47/5 37/50/5 21/27/5 
f 47/65/2 39/66/2 48/67/8 49/68/8 
f 50/69/5 51/70/5 43/60/5 52/71/5 
f 44/72/4 30/63/4 46/64/5 53/73/5 
s 1
f 47/74/2 6/75/2 54/76/2 55/77/2 
s off
f 55/78/2 54/79/2 56/80/2 57/81/2 
f 57/82/2 56/83/2 58/84/4 59/85/4 
f 59/86/4 58/87/4 22/28/5 52/71/5 
f 44/61/4 36/88/4 60/89/6 45/62/6 
f 6/6/2 47/65/2 49/68/8 7/7/3 
f 21/27/5 50/69/5 52/71/5 22/28/5 
f 36/49/4 44/72/4 53/73/5 37/50/5 
s 1
f 6/75/2 5/90/2 61/91/2 54/76/2 
s off
f 54/79/2 61/92/2 62/93/2 56/80/2 
f 56/83/2 62/94/2 63/95/4 58/84/4 
f 58/87/4 63/96/4 19/25/5 22/28/5 
f 36/88/4 35/97/4 64/98/6 60/89/6 
s 1
f 39/53/2 47/74/2 55/77/2 40/54/2 
s off
f 40/55/2 55/78/2 57/81/2 41/56/2 
f 41/57/2 57/82/2 59/85/4 42/58/4 
f 42/59/4 59/86/4 52/71/5 43/60/5 
f 39/66/2 23/51/2 38/52/3 48/67/8 
s 1
f 65/99/9 66/100/10 67/101/10 68/102/9 
s 2
f 69/103/11 70/104/11 65/105/9 68/106/9 
s 1
f 71/107/12 72/108/12 73/109/12 74/110/12 
s 2
f 66/111/10 71/112/12 74/113/12 67/114/10 
s off
f 73/115/12 72/116/12 75/117/12 76/118/12 
f 76/119/12 75/120/12 70/121/13 77/122/14 
f 78/123/15 79/124/16 80/125/17 81/126/18 
f 82/108/12 29/107/19 80/127/17 79/128/16 
f 29/129/19 43/130/20 81/131/18 80/132/17 
f 43/133/20 51/134/21 78/135/15 81/136/18 
f 51/137/21 82/116/12 79/138/16 78/139/15 
f 83/140/22 84/141/23 85/142/24 86/143/25 
f 53/121/12 87/120/19 85/144/24 84/145/23 
f 87/146/19 88/147/9 86/148/25 85/149/24 
f 88/150/9 37/151/10 83/152/22 86/153/25 
f 37/154/10 53/155/12 84/156/23 83/157/22 
# 61 polygons

