# 3ds Max Wavefront OBJ Exporter v0.97b - (c)2007 guruware
# File Created: 21.01.2020 15:06:18

mtllib NewRoom_Window.mtl

#
# object NewRoom_Window
#

v  593.7472 91.5000 -51.3384
v  593.7472 91.5000 -50.0011
v  593.7472 94.0000 -50.0011
v  593.7472 94.0000 -51.3384
v  593.7472 16.6263 111.2943
v  593.7472 16.6263 112.6316
v  593.7472 19.1262 112.6316
v  593.7472 19.1262 111.2943
v  593.7472 91.5000 29.7479
v  593.7472 94.0000 29.7479
v  593.7472 259.0000 -50.0011
v  593.7472 261.5000 -50.0011
v  593.7472 261.5000 -51.3384
v  593.7472 259.0000 -51.3384
v  593.7472 259.0000 112.6316
v  593.7472 261.5000 112.6316
v  593.7472 261.5000 111.2943
v  593.7472 259.0000 111.2943
v  593.7472 261.5000 31.5453
v  593.7472 259.0000 31.5453
v  593.7472 16.6263 31.5453
v  593.7472 19.1262 31.5453
v  593.7472 261.5000 29.7479
v  593.7472 259.0000 29.7479
v  590.7472 94.0000 29.7479
v  590.7472 94.0000 -50.0011
v  590.7472 259.0000 29.7479
v  590.7472 259.0000 -50.0011
v  590.7472 103.0000 23.0401
v  590.7472 103.0000 -43.2932
v  590.7472 250.0000 23.0401
v  590.7472 250.0000 -43.2932
v  593.7472 250.0000 -43.2932
v  593.7472 250.0000 23.0401
v  593.7472 103.0000 23.0401
v  593.7472 103.0000 -43.2932
v  586.3105 179.5860 27.6013
v  586.3105 179.5860 25.5963
v  586.2527 175.8984 25.5963
v  586.2527 175.8984 27.6013
v  590.7472 179.5860 25.6820
v  590.7472 179.5860 27.5700
v  590.7472 175.8984 27.5700
v  590.7472 175.8984 25.6820
v  590.2472 174.0422 27.5700
v  590.2472 174.0422 25.6820
v  590.7472 174.0422 25.6820
v  590.7472 174.0422 27.5700
v  590.2472 175.8984 24.3628
v  590.2472 179.5860 24.3628
v  590.7472 179.5860 24.3628
v  590.7472 175.8984 24.3628
v  590.2472 181.4422 25.6820
v  590.2472 181.4422 27.5700
v  590.7472 181.4422 27.5700
v  590.7472 181.4422 25.6820
v  590.2472 179.5860 28.8347
v  590.2472 175.8984 28.8347
v  590.7472 175.8984 28.8347
v  590.7472 179.5860 28.8347
v  590.2472 179.5860 25.6820
v  590.2472 179.5860 27.5700
v  590.2472 175.8984 27.5700
v  590.2472 175.8984 25.6820
v  590.2472 181.4422 24.3628
v  590.7472 181.4422 24.3628
v  590.7472 174.0422 24.3628
v  590.2472 174.0422 24.3628
v  590.2472 174.0422 28.8347
v  590.7472 174.0422 28.8347
v  590.7472 181.4422 28.8347
v  590.2472 181.4422 28.8347
v  588.3171 179.5860 25.6190
v  588.3171 179.5860 27.6211
v  588.3171 175.8984 25.6190
v  588.3171 175.8984 27.6211
v  588.6198 164.4624 27.4266
v  587.8705 164.1472 27.4266
v  587.8705 164.1472 25.7710
v  588.6198 164.4624 25.7710
v  586.5459 173.8351 25.6496
v  586.5459 173.8351 27.5480
v  587.3827 173.8932 25.6654
v  587.3827 173.8932 27.5618
v  586.9279 166.6725 25.7190
v  586.9279 166.6725 27.4786
v  587.7614 166.8207 25.7258
v  587.7614 166.8207 27.4845
v  593.7472 19.1263 111.2943
v  590.7472 19.1263 111.2943
v  590.7472 19.1263 31.5453
v  593.7472 19.1263 31.5453
v  590.7472 259.0000 31.5453
v  590.7472 259.0000 111.2943
v  590.7472 28.1263 104.5864
v  590.7472 28.1263 38.2531
v  590.7472 250.0000 38.2531
v  590.7472 250.0000 104.5864
v  593.7472 250.0000 104.5864
v  593.7472 250.0000 38.2531
v  593.7472 28.1263 38.2531
v  593.7472 28.1263 104.5864
v  586.3105 179.5860 33.6919
v  586.2527 175.8984 33.6919
v  586.2527 175.8984 35.6969
v  586.3105 179.5860 35.6969
v  590.7472 179.5860 35.6111
v  590.7472 175.8984 35.6111
v  590.7472 175.8984 33.7231
v  590.7472 179.5860 33.7231
v  590.2472 174.0422 33.7231
v  590.7472 174.0422 33.7231
v  590.7472 174.0422 35.6111
v  590.2472 174.0422 35.6111
v  590.2472 175.8984 36.9303
v  590.7472 175.8984 36.9303
v  590.7472 179.5860 36.9303
v  590.2472 179.5860 36.9303
v  590.2472 181.4422 35.6111
v  590.7472 181.4422 35.6111
v  590.7472 181.4422 33.7231
v  590.2472 181.4422 33.7231
v  590.2472 179.5860 32.4584
v  590.7472 179.5860 32.4584
v  590.7472 175.8984 32.4584
v  590.2472 175.8984 32.4584
v  590.2472 179.5860 33.7231
v  590.2472 179.5860 35.6111
v  590.2472 175.8984 35.6111
v  590.2472 175.8984 33.7231
v  590.7472 181.4422 36.9303
v  590.2472 181.4422 36.9303
v  590.2472 174.0422 36.9303
v  590.7472 174.0422 36.9303
v  590.7472 174.0422 32.4584
v  590.2472 174.0422 32.4584
v  590.2472 181.4422 32.4584
v  590.7472 181.4422 32.4584
v  588.3171 179.5860 33.6721
v  588.3171 179.5860 35.6741
v  588.3171 175.8984 35.6741
v  588.3171 175.8984 33.6721
v  588.6198 164.4624 33.8666
v  588.6198 164.4624 35.5221
v  587.8705 164.1472 35.5221
v  587.8705 164.1472 33.8666
v  586.5459 173.8351 33.7452
v  586.5459 173.8351 35.6436
v  587.3827 173.8932 35.6278
v  587.3827 173.8932 33.7314
v  586.9280 166.6725 33.8146
v  586.9280 166.6725 35.5742
v  587.7614 166.8207 35.5674
v  587.7614 166.8207 33.8087
v  593.7472 14.8487 31.5453
v  593.7472 14.8487 111.2943
v  593.7472 14.8487 112.6316
v  593.7472 16.6263 112.6315
v  593.7472 16.6263 30.6611
v  593.7472 14.8487 30.6612
# 160 vertices

vn -1.0000 0.0000 0.0000
vn -1.0000 0.0000 -0.0000
vn -1.0000 -0.0000 0.0000
vn -0.0000 -0.7071 -0.7071
vn 0.0000 -0.7071 0.7071
vn -0.5774 -0.5774 0.5774
vn -0.5774 -0.5774 -0.5774
vn 0.0000 0.7071 0.7071
vn -0.5774 0.5774 0.5774
vn -0.0000 0.7071 -0.7071
vn -0.5774 0.5774 -0.5774
vn -0.9045 0.3015 -0.3015
vn -0.9045 0.3015 0.3015
vn -0.9045 -0.3015 -0.3015
vn -0.9045 -0.3015 0.3015
vn -0.5759 0.5822 0.5740
vn -0.5683 0.5806 -0.5830
vn -0.7135 -0.0558 -0.6984
vn -0.7227 -0.0562 0.6889
vn 1.0000 0.0000 -0.0000
vn 1.0000 0.0000 0.0000
vn -0.7071 -0.7071 -0.0000
vn 0.7071 -0.7071 -0.0000
vn 0.7071 -0.7071 0.0000
vn -0.7071 0.0000 -0.7071
vn 0.7071 0.0000 -0.7071
vn -0.7071 0.7071 0.0000
vn -0.7071 0.7071 -0.0000
vn 0.7071 0.7071 -0.0000
vn -0.7071 0.0000 0.7071
vn 0.7071 0.0000 0.7071
vn 0.7071 -0.0000 0.7071
vn -0.8998 0.3128 -0.3041
vn -0.9007 0.3107 0.3036
vn -0.9007 -0.3107 0.3036
vn -0.8998 -0.3128 -0.3041
vn 0.5774 0.5774 -0.5774
vn 0.5774 -0.5774 -0.5774
vn 0.5773 -0.5773 0.5774
vn 0.5774 0.5773 0.5774
vn -0.5774 0.5774 0.5773
vn 0.0209 0.7039 -0.7099
vn 0.0079 0.7017 0.7125
vn 0.2986 -0.4402 -0.8468
vn 0.2813 -0.4426 0.8514
vn 0.7511 -0.3331 0.5700
vn -0.3232 -0.7576 0.5672
vn -0.3232 -0.7576 -0.5672
vn 0.7501 -0.3316 -0.5722
vn -0.6853 -0.0846 -0.7233
vn -0.7027 -0.0859 0.7063
vn 0.6436 -0.1449 -0.7515
vn 0.6223 -0.1448 0.7693
vn -0.7159 -0.1612 -0.6794
vn -0.7220 -0.1623 0.6726
vn 0.6626 0.1204 -0.7392
vn 0.6550 0.1144 0.7469
vn -1.0000 -0.0000 -0.0000
vn -0.5759 0.5822 -0.5740
vn -0.7227 -0.0562 -0.6889
vn -0.7135 -0.0558 0.6984
vn -0.5683 0.5806 0.5830
vn -0.7071 -0.7071 0.0000
vn -0.9007 0.3107 -0.3036
vn -0.8998 0.3128 0.3041
vn -0.8998 -0.3128 0.3041
vn -0.9007 -0.3107 -0.3036
vn 0.5774 0.5774 0.5774
vn 0.5774 -0.5774 0.5774
vn 0.0079 0.7017 -0.7125
vn 0.0209 0.7040 0.7099
vn 0.2986 -0.4402 0.8468
vn 0.2813 -0.4426 -0.8515
vn 0.7511 -0.3331 -0.5700
vn 0.7501 -0.3316 0.5722
vn -0.3232 -0.7576 -0.5671
vn -0.7027 -0.0859 -0.7063
vn -0.6853 -0.0846 0.7233
vn 0.6436 -0.1449 0.7515
vn 0.6223 -0.1448 -0.7693
vn -0.7220 -0.1623 -0.6726
vn -0.7159 -0.1612 0.6794
vn 0.6626 0.1204 0.7392
vn 0.6550 0.1144 -0.7470
# 84 vertex normals

vt 0.1024 -0.0850 3.0811
vt 0.1158 -0.0850 3.0811
vt 0.1158 -0.0600 3.0811
vt 0.1024 -0.0600 3.0811
vt 1.7287 -0.8337 3.0811
vt 1.7421 -0.8337 3.0811
vt 1.7421 -0.8087 3.0811
vt 1.7287 -0.8087 3.0811
vt 0.9132 -0.0850 3.0811
vt 0.9132 -0.0600 3.0811
vt 0.1158 1.5900 3.0811
vt 0.1158 1.6150 3.0811
vt 0.1024 1.6150 3.0811
vt 0.1024 1.5900 3.0811
vt 1.7421 1.5900 3.0811
vt 1.7421 1.6150 3.0811
vt 1.7287 1.6150 3.0811
vt 1.7287 1.5900 3.0811
vt 0.9312 1.6150 3.0811
vt 0.9312 1.5900 3.0811
vt 0.9312 -0.8337 3.0811
vt 0.9312 -0.8087 3.0811
vt 0.9132 1.6150 3.0811
vt 0.9132 1.5900 3.0811
vt -2.0811 0.8842 -0.0600
vt -2.0811 0.0868 -0.0600
vt -2.0511 0.0868 -0.0600
vt -2.0511 0.8842 -0.0600
vt 3.0811 -0.0600 0.0868
vt 3.0811 1.5900 0.0868
vt 3.0511 1.5900 0.0868
vt 3.0511 -0.0600 0.0868
vt 3.0811 0.0868 1.5900
vt 3.0811 0.8842 1.5900
vt 3.0511 0.8842 1.5900
vt 3.0511 0.0868 1.5900
vt -2.0811 1.5900 0.8842
vt -2.0811 -0.0600 0.8842
vt -2.0511 -0.0600 0.8842
vt -2.0511 1.5900 0.8842
vt 0.1158 -0.0600 3.0511
vt 0.9132 -0.0600 3.0511
vt 0.8462 0.0300 3.0511
vt 0.1828 0.0300 3.0511
vt 0.9132 1.5900 3.0511
vt 0.8462 1.5000 3.0511
vt 0.1158 1.5900 3.0511
vt 0.1828 1.5000 3.0511
vt -2.0811 0.8172 1.5000
vt -2.0811 0.1538 1.5000
vt -2.0511 0.1538 1.5000
vt -2.0511 0.8172 1.5000
vt -2.0811 1.5000 0.1538
vt -2.0811 0.0300 0.1538
vt -2.0511 0.0300 0.1538
vt -2.0511 1.5000 0.1538
vt 3.0811 0.1538 0.0300
vt 3.0811 0.8172 0.0300
vt 3.0511 0.8172 0.0300
vt 3.0511 0.1538 0.0300
vt 3.0811 0.0300 0.8172
vt 3.0811 1.5000 0.8172
vt 3.0511 1.5000 0.8172
vt 3.0511 0.0300 0.8172
vt 0.8918 0.7959 3.0068
vt 0.8717 0.7959 3.0068
vt 0.8717 0.7590 3.0062
vt 0.8918 0.7590 3.0062
vt 0.1274 0.7959 3.0511
vt 0.1085 0.7959 3.0511
vt 0.1085 0.7590 3.0511
vt 0.1274 0.7590 3.0511
vt -2.0461 0.1085 0.7404
vt -2.0461 0.1274 0.7404
vt -2.0511 0.1274 0.7404
vt -2.0511 0.1085 0.7404
vt -2.0461 0.7590 0.1406
vt -2.0461 0.7959 0.1406
vt -2.0511 0.7959 0.1406
vt -2.0511 0.7590 0.1406
vt 3.0461 0.1274 0.8144
vt 3.0461 0.1085 0.8144
vt 3.0511 0.1085 0.8144
vt 3.0511 0.1274 0.8144
vt 3.0461 0.7959 0.0959
vt 3.0461 0.7590 0.0959
vt 3.0511 0.7590 0.0959
vt 3.0511 0.7959 0.0959
vt 0.8915 0.8144 3.0461
vt 0.8726 0.8144 3.0461
vt 0.8726 0.7959 3.0461
vt 0.8915 0.7959 3.0461
vt 0.8726 0.7404 3.0461
vt 0.8915 0.7404 3.0461
vt 0.8915 0.7590 3.0461
vt 0.8726 0.7590 3.0461
vt 0.1274 0.8144 3.0511
vt 0.1085 0.8144 3.0511
vt 0.1085 0.7404 3.0511
vt 0.1274 0.7404 3.0511
vt -2.0461 0.8144 0.1406
vt -2.0511 0.8144 0.1406
vt -2.0511 0.7404 0.1406
vt -2.0461 0.7404 0.1406
vt 3.0461 0.7404 0.0959
vt 3.0511 0.7404 0.0959
vt 3.0511 0.8144 0.0959
vt 3.0461 0.8144 0.0959
vt 0.8594 0.7959 3.0461
vt 0.8594 0.7590 3.0461
vt 0.9041 0.7590 3.0461
vt 0.9041 0.7959 3.0461
vt 0.0959 0.7959 3.0511
vt 0.0959 0.7590 3.0511
vt 0.1406 0.7590 3.0511
vt 0.1406 0.7959 3.0511
vt -2.0461 0.1406 0.7404
vt -2.0511 0.1406 0.7404
vt -2.0511 0.0959 0.7404
vt -2.0461 0.0959 0.7404
vt 3.0461 0.0959 0.8144
vt 3.0511 0.0959 0.8144
vt 3.0511 0.1406 0.8144
vt 3.0461 0.1406 0.8144
vt 0.8594 0.8144 3.0461
vt 0.9041 0.8144 3.0461
vt 0.9041 0.7404 3.0461
vt 0.8594 0.7404 3.0461
vt 0.0959 0.8144 3.0511
vt 0.1406 0.8144 3.0511
vt 0.1406 0.7404 3.0511
vt 0.0959 0.7404 3.0511
vt 3.0461 0.1085 0.7959
vt 3.0461 0.1274 0.7959
vt 3.0268 0.1280 0.7959
vt 3.0268 0.1080 0.7959
vt -2.0461 0.7959 0.1274
vt -2.0461 0.7590 0.1274
vt -2.0268 0.7590 0.1280
vt -2.0268 0.7959 0.1280
vt -2.0461 0.1274 0.7590
vt -2.0461 0.1085 0.7590
vt -2.0268 0.1080 0.7590
vt -2.0268 0.1280 0.7590
vt 3.0461 0.7590 0.1085
vt 3.0461 0.7959 0.1085
vt 3.0268 0.7959 0.1080
vt 3.0268 0.7590 0.1080
vt 3.0068 0.1283 0.7959
vt 3.0068 0.1082 0.7959
vt -2.0062 0.7590 0.1283
vt -2.0068 0.7959 0.1283
vt -2.0299 0.1100 0.6446
vt -2.0224 0.1100 0.6415
vt -2.0224 0.1265 0.6415
vt -2.0299 0.1265 0.6446
vt 3.0068 0.7959 0.1082
vt 3.0062 0.7590 0.1082
vt 0.8723 0.7384 3.0091
vt 0.8912 0.7384 3.0091
vt -2.0175 0.7389 0.1276
vt -2.0091 0.7384 0.1277
vt 0.1280 0.7590 3.0268
vt 0.1080 0.7590 3.0268
vt 0.1086 0.7389 3.0175
vt 0.1276 0.7389 3.0175
vt 3.0091 0.7384 0.1088
vt 3.0175 0.7389 0.1086
vt 0.8730 0.6667 3.0130
vt 0.8905 0.6667 3.0130
vt -2.0213 0.6682 0.1270
vt -2.0130 0.6667 0.1270
vt 0.1094 0.6682 3.0213
vt 0.1270 0.6682 3.0213
vt 3.0130 0.6667 0.1095
vt 3.0213 0.6682 0.1094
vt 0.8735 0.6415 3.0224
vt 0.8900 0.6415 3.0224
vt -2.0299 0.6446 0.1265
vt -2.0224 0.6415 0.1265
vt 0.1100 0.6446 3.0299
vt 0.1265 0.6446 3.0299
vt 3.0224 0.6415 0.1100
vt 3.0299 0.6446 0.1100
vt 0.1828 0.0300 3.0512
vt -2.0811 -0.7287 -0.8087
vt -2.0511 -0.7287 -0.8087
vt -2.0511 0.0688 -0.8087
vt -2.0811 0.0688 -0.8087
vt -2.0811 -0.8087 0.0688
vt -2.0511 -0.8087 0.0688
vt -2.0511 1.5900 0.0688
vt -2.0811 1.5900 0.0688
vt 3.0811 0.0688 1.5900
vt 3.0511 0.0688 1.5900
vt 3.0511 -0.7287 1.5900
vt 3.0811 -0.7287 1.5900
vt 3.0811 1.5900 -0.7287
vt 3.0511 1.5900 -0.7287
vt 3.0511 -0.8087 -0.7287
vt 3.0811 -0.8087 -0.7287
vt 1.7287 -0.8087 3.0511
vt 1.6616 -0.7187 3.0511
vt 0.9983 -0.7187 3.0511
vt 0.9312 -0.8087 3.0511
vt 0.9983 1.5000 3.0511
vt 0.9312 1.5900 3.0511
vt 1.6616 1.5000 3.0511
vt 1.7287 1.5900 3.0511
vt -2.0811 -0.6616 1.5000
vt -2.0511 -0.6616 1.5000
vt -2.0511 0.0017 1.5000
vt -2.0811 0.0017 1.5000
vt 3.0811 1.5000 0.0017
vt 3.0511 1.5000 0.0017
vt 3.0511 -0.7187 0.0017
vt 3.0811 -0.7187 0.0017
vt 3.0811 0.0017 -0.7187
vt 3.0511 0.0017 -0.7187
vt 3.0511 -0.6616 -0.7187
vt 3.0811 -0.6616 -0.7187
vt -2.0811 -0.7187 -0.6616
vt -2.0511 -0.7187 -0.6616
vt -2.0511 1.5000 -0.6616
vt -2.0811 1.5000 -0.6616
vt 0.9527 0.7959 3.0068
vt 0.9527 0.7590 3.0062
vt 0.9727 0.7590 3.0062
vt 0.9727 0.7959 3.0068
vt 0.0281 0.7959 3.0511
vt 0.0281 0.7590 3.0511
vt 0.0470 0.7590 3.0511
vt 0.0470 0.7959 3.0511
vt -2.0461 0.0470 0.7404
vt -2.0511 0.0470 0.7404
vt -2.0511 0.0281 0.7404
vt -2.0461 0.0281 0.7404
vt 3.0461 0.7590 0.0149
vt 3.0511 0.7590 0.0149
vt 3.0511 0.7959 0.0149
vt 3.0461 0.7959 0.0149
vt 3.0461 0.0281 0.8144
vt 3.0511 0.0281 0.8144
vt 3.0511 0.0470 0.8144
vt 3.0461 0.0470 0.8144
vt -2.0461 0.7959 0.0597
vt -2.0511 0.7959 0.0597
vt -2.0511 0.7590 0.0597
vt -2.0461 0.7590 0.0597
vt 0.9530 0.8144 3.0461
vt 0.9530 0.7959 3.0461
vt 0.9719 0.7959 3.0461
vt 0.9719 0.8144 3.0461
vt 0.9719 0.7404 3.0461
vt 0.9719 0.7590 3.0461
vt 0.9530 0.7590 3.0461
vt 0.9530 0.7404 3.0461
vt 0.0281 0.8144 3.0511
vt 0.0470 0.8144 3.0511
vt 0.0470 0.7404 3.0511
vt 0.0281 0.7404 3.0511
vt 3.0511 0.8144 0.0149
vt 3.0461 0.8144 0.0149
vt 3.0461 0.7404 0.0149
vt 3.0511 0.7404 0.0149
vt -2.0511 0.7404 0.0597
vt -2.0461 0.7404 0.0597
vt -2.0461 0.8144 0.0597
vt -2.0511 0.8144 0.0597
vt 0.9851 0.7590 3.0461
vt 0.9851 0.7959 3.0461
vt 0.9403 0.7959 3.0461
vt 0.9403 0.7590 3.0461
vt 0.0597 0.7590 3.0511
vt 0.0597 0.7959 3.0511
vt 0.0149 0.7959 3.0511
vt 0.0149 0.7590 3.0511
vt -2.0511 0.0149 0.7404
vt -2.0461 0.0149 0.7404
vt -2.0461 0.0597 0.7404
vt -2.0511 0.0597 0.7404
vt 3.0511 0.0597 0.8144
vt 3.0461 0.0597 0.8144
vt 3.0461 0.0149 0.8144
vt 3.0511 0.0149 0.8144
vt 0.9851 0.8144 3.0461
vt 0.9403 0.8144 3.0461
vt 0.9403 0.7404 3.0461
vt 0.9851 0.7404 3.0461
vt 0.0597 0.8144 3.0511
vt 0.0149 0.8144 3.0511
vt 0.0149 0.7404 3.0511
vt 0.0597 0.7404 3.0511
vt 3.0461 0.0470 0.7959
vt 3.0268 0.0475 0.7959
vt 3.0268 0.0275 0.7959
vt 3.0461 0.0281 0.7959
vt 3.0461 0.7959 0.0281
vt 3.0268 0.7959 0.0275
vt 3.0268 0.7590 0.0275
vt 3.0461 0.7590 0.0281
vt -2.0461 0.0281 0.7590
vt -2.0268 0.0275 0.7590
vt -2.0268 0.0475 0.7590
vt -2.0461 0.0470 0.7590
vt -2.0461 0.7590 0.0470
vt -2.0268 0.7590 0.0475
vt -2.0268 0.7959 0.0475
vt -2.0461 0.7959 0.0470
vt 3.0068 0.0473 0.7959
vt 3.0068 0.0273 0.7959
vt 3.0068 0.7959 0.0273
vt 3.0062 0.7590 0.0273
vt -2.0299 0.0456 0.6446
vt -2.0299 0.0290 0.6446
vt -2.0224 0.0290 0.6415
vt -2.0224 0.0456 0.6415
vt -2.0062 0.7590 0.0473
vt -2.0068 0.7959 0.0473
vt 0.9532 0.7384 3.0091
vt 0.9722 0.7384 3.0091
vt 3.0091 0.7384 0.0278
vt 3.0175 0.7389 0.0280
vt 0.0275 0.7590 3.0268
vt 0.0280 0.7389 3.0175
vt 0.0469 0.7389 3.0175
vt 0.0475 0.7590 3.0268
vt -2.0175 0.7389 0.0469
vt -2.0091 0.7384 0.0468
vt 0.9539 0.6667 3.0130
vt 0.9715 0.6667 3.0130
vt 3.0130 0.6667 0.0285
vt 3.0213 0.6682 0.0286
vt 0.0286 0.6682 3.0213
vt 0.0462 0.6682 3.0213
vt -2.0213 0.6682 0.0462
vt -2.0130 0.6667 0.0461
vt 0.9544 0.6415 3.0224
vt 0.9710 0.6415 3.0224
vt 3.0224 0.6415 0.0290
vt 3.0299 0.6446 0.0290
vt 0.0290 0.6446 3.0299
vt 0.0456 0.6446 3.0299
vt -2.0299 0.6446 0.0456
vt -2.0224 0.6415 0.0456
vt 0.9312 -0.8515 3.0811
vt 1.7287 -0.8515 3.0811
vt 1.7421 -0.8515 3.0811
vt 0.9224 -0.8337 3.0811
vt 0.9224 -0.8515 3.0811
# 350 texture coords

o NewRoom_Window
g NewRoom_Window
usemtl wire_160160160
s 32
f 1/1/1 2/2/1 3/3/1 4/4/1 
f 5/5/1 6/6/1 7/7/1 8/8/1 
f 2/2/1 9/9/2 10/10/2 3/3/1 
f 11/11/1 12/12/1 13/13/1 14/14/1 
f 15/15/1 16/16/1 17/17/1 18/18/1 
f 18/18/1 17/17/1 19/19/1 20/20/1 
f 3/3/1 11/11/1 14/14/1 4/4/1 
f 7/7/1 15/15/1 18/18/1 8/8/1 
f 21/21/3 5/5/1 8/8/1 22/22/2 
f 19/19/1 23/23/1 24/24/1 20/20/1 
f 20/20/1 24/24/1 10/10/2 22/22/2 
f 9/9/2 21/21/3 22/22/2 10/10/2 
f 23/23/1 12/12/1 11/11/1 24/24/1 
s 8
f 3/25/4 10/26/5 25/27/6 26/28/7 
s 16
f 10/29/5 24/30/8 27/31/9 25/32/6 
s 32
f 24/33/8 11/34/10 28/35/11 27/36/9 
s 64
f 11/37/10 3/38/4 26/39/7 28/40/11 
s off
f 26/41/7 25/42/6 29/43/12 30/44/13 
f 25/42/6 27/45/9 31/46/14 29/43/12 
f 27/45/9 28/47/11 32/48/15 31/46/14 
f 28/47/11 26/41/7 30/44/13 32/48/15 
s 1
f 33/49/5 34/50/4 31/51/14 32/52/15 
s 2
f 34/53/4 35/54/10 29/55/12 31/56/14 
s 1
f 35/57/10 36/58/8 30/59/13 29/60/12 
s 2
f 36/61/8 33/62/5 32/63/15 30/64/13 
f 37/65/16 38/66/17 39/67/18 40/68/19 
s 4
f 41/69/20 42/70/21 43/71/21 44/72/20 
s 8
f 45/73/22 46/74/22 47/75/23 48/76/24 
s 16
f 49/77/25 50/78/25 51/79/26 52/80/26 
s 32
f 53/81/27 54/82/28 55/83/29 56/84/29 
s 64
f 57/85/30 58/86/30 59/87/31 60/88/32 
s 2
f 54/89/28 53/90/27 61/91/33 62/92/34 
f 46/93/22 45/94/22 63/95/35 64/96/36 
s 4
f 56/97/29 55/98/29 42/70/21 41/69/20 
f 48/99/24 47/100/23 44/72/20 43/71/21 
s 16
f 50/78/25 65/101/11 66/102/37 51/79/26 
f 52/80/26 67/103/38 68/104/7 49/77/25 
s 64
f 58/86/30 69/105/6 70/106/39 59/87/31 
f 60/88/32 71/107/40 72/108/41 57/85/30 
s 2
f 61/91/33 50/109/25 49/110/25 64/96/36 
f 63/95/35 58/111/30 57/112/30 62/92/34 
s 4
f 42/70/21 60/113/32 59/114/31 43/71/21 
f 44/72/20 52/115/26 51/116/26 41/69/20 
s 8
f 46/74/22 68/117/7 67/118/38 47/75/23 
f 48/76/24 70/119/39 69/120/6 45/73/22 
s 32
f 54/82/28 72/121/41 71/122/40 55/83/29 
f 56/84/29 66/123/37 65/124/11 53/81/27 
s 2
f 53/90/27 65/125/11 50/109/25 61/91/33 
f 62/92/34 57/112/30 72/126/41 54/89/28 
f 45/94/22 69/127/6 58/111/30 63/95/35 
f 64/96/36 49/110/25 68/128/7 46/93/22 
s 4
f 55/98/29 71/129/40 60/113/32 42/70/21 
f 41/69/20 51/116/26 66/130/37 56/97/29 
f 47/100/23 67/131/38 52/115/26 44/72/20 
f 43/71/21 59/114/31 70/132/39 48/99/24 
s off
f 62/133/34 61/134/33 73/135/42 74/136/43 
f 61/137/33 64/138/36 75/139/44 73/140/42 
f 64/141/36 63/142/35 76/143/45 75/144/44 
f 63/145/35 62/146/34 74/147/43 76/148/45 
f 73/135/42 38/149/17 37/150/16 74/136/43 
f 75/139/44 39/151/18 38/152/17 73/140/42 
f 77/153/46 78/154/47 79/155/48 80/156/49 
f 74/147/43 37/157/16 40/158/19 76/148/45 
f 40/68/19 39/67/18 81/159/50 82/160/51 
f 39/151/18 75/139/44 83/161/52 81/162/50 
f 75/163/44 76/164/45 84/165/53 83/166/52 
f 76/148/45 40/158/19 82/167/51 84/168/53 
f 81/159/50 85/169/54 86/170/55 82/160/51 
f 83/161/52 87/171/56 85/172/54 81/162/50 
f 84/165/53 88/173/57 87/174/56 83/166/52 
f 82/167/51 86/175/55 88/176/57 84/168/53 
f 85/169/54 79/177/48 78/178/47 86/170/55 
f 87/171/56 80/179/49 79/180/48 85/172/54 
f 88/173/57 77/181/46 80/182/49 87/174/56 
f 86/175/55 78/183/47 77/184/46 88/176/57 
s 1
f 32/48/3 30/185/58 29/43/2 31/46/1 
s 8
f 89/186/5 90/187/6 91/188/7 92/189/4 
s 16
f 92/190/4 91/191/7 93/192/11 20/193/10 
s 32
f 20/194/10 93/195/11 94/196/9 18/197/8 
s 64
f 18/198/8 94/199/9 90/200/6 89/201/5 
s off
f 90/202/6 95/203/12 96/204/13 91/205/7 
f 91/205/7 96/204/13 97/206/15 93/207/11 
f 93/207/11 97/206/15 98/208/14 94/209/9 
f 94/209/9 98/208/14 95/203/12 90/202/6 
s 1
f 99/210/4 98/211/14 97/212/15 100/213/5 
s 2
f 100/214/5 97/215/15 96/216/13 101/217/8 
s 1
f 101/218/8 96/219/13 95/220/12 102/221/10 
s 2
f 102/222/10 95/223/12 98/224/14 99/225/4 
f 103/226/59 104/227/60 105/228/61 106/229/62 
s 4
f 107/230/20 108/231/20 109/232/20 110/233/20 
s 8
f 111/234/63 112/235/23 113/236/23 114/237/63 
s 16
f 115/238/30 116/239/31 117/240/31 118/241/30 
s 32
f 119/242/27 120/243/29 121/244/29 122/245/27 
s 64
f 123/246/25 124/247/26 125/248/26 126/249/25 
s 2
f 122/250/27 127/251/64 128/252/65 119/253/27 
f 114/254/63 129/255/66 130/256/67 111/257/63 
s 4
f 120/258/29 107/230/20 110/233/20 121/259/29 
f 112/260/23 109/232/20 108/231/20 113/261/23 
s 16
f 118/241/30 117/240/31 131/262/68 132/263/9 
f 116/239/31 115/238/30 133/264/6 134/265/69 
s 64
f 126/249/25 125/248/26 135/266/38 136/267/7 
f 124/247/26 123/246/25 137/268/11 138/269/37 
s 2
f 128/252/65 129/255/66 115/270/30 118/271/30 
f 130/256/67 127/251/64 123/272/25 126/273/25 
s 4
f 110/233/20 109/232/20 125/274/26 124/275/26 
f 108/231/20 107/230/20 117/276/31 116/277/31 
s 8
f 114/237/63 113/236/23 134/278/69 133/279/6 
f 112/235/23 111/234/63 136/280/7 135/281/38 
s 32
f 122/245/27 121/244/29 138/282/37 137/283/11 
f 120/243/29 119/242/27 132/284/9 131/285/68 
s 2
f 119/253/27 128/252/65 118/271/30 132/286/9 
f 127/251/64 122/250/27 137/287/11 123/272/25 
f 111/257/63 130/256/67 126/273/25 136/288/7 
f 129/255/66 114/254/63 133/289/6 115/270/30 
s 4
f 121/259/29 110/233/20 124/275/26 138/290/37 
f 107/230/20 120/258/29 131/291/68 117/276/31 
f 113/261/23 108/231/20 116/277/31 134/292/69 
f 109/232/20 112/260/23 135/293/38 125/274/26 
s off
f 127/294/64 139/295/70 140/296/71 128/297/65 
f 128/298/65 140/299/71 141/300/72 129/301/66 
f 129/302/66 141/303/72 142/304/73 130/305/67 
f 130/306/67 142/307/73 139/308/70 127/309/64 
f 140/296/71 139/295/70 103/310/59 106/311/62 
f 141/300/72 140/299/71 106/312/62 105/313/61 
f 143/314/74 144/315/75 145/316/47 146/317/76 
f 139/308/70 142/307/73 104/318/60 103/319/59 
f 104/227/60 147/320/77 148/321/78 105/228/61 
f 105/313/61 148/322/78 149/323/79 141/300/72 
f 141/324/72 149/325/79 150/326/80 142/327/73 
f 142/307/73 150/328/80 147/329/77 104/318/60 
f 148/321/78 147/320/77 151/330/81 152/331/82 
f 149/323/79 148/322/78 152/332/82 153/333/83 
f 150/326/80 149/325/79 153/334/83 154/335/84 
f 147/329/77 150/328/80 154/336/84 151/337/81 
f 152/331/82 151/330/81 146/338/76 145/339/47 
f 153/333/83 152/332/82 145/340/47 144/341/75 
f 154/335/84 153/334/83 144/342/75 143/343/74 
f 151/337/81 154/336/84 143/344/74 146/345/76 
s 1
f 98/208/1 97/206/1 96/204/1 95/203/1 
s off
f 5/5/1 21/21/3 155/346/3 156/347/1 
f 5/5/1 156/347/1 157/348/1 158/6/1 
f 155/346/3 21/21/3 159/349/3 160/350/3 
# 142 polygons

