# 3ds Max Wavefront OBJ Exporter v0.97b - (c)2007 guruware
# File Created: 27.01.2020 16:46:50

mtllib NewRoom_Door_Change1.mtl

#
# object NewRoom_Door
#

v  -0.0000 0.0000 2.7000
v  7.6000 0.0000 2.7000
v  7.6000 213.4000 2.7000
v  99.1000 213.4000 2.7000
v  99.1000 0.0000 2.7000
v  106.7000 0.0000 2.7000
v  106.7000 221.0000 2.7000
v  -0.0000 221.0000 2.7000
v  7.6000 0.0000 0.2000
v  7.6000 213.4000 0.2000
v  99.1000 213.4000 0.2000
v  99.1000 0.0000 0.2000
v  106.7000 0.0000 0.2000
v  106.7000 221.0000 0.2000
v  0.0000 221.0000 0.2000
v  0.0000 0.0000 0.2000
v  94.2943 108.7181 0.2001
v  94.2943 104.8711 0.2001
v  91.0044 104.8711 0.2001
v  91.0044 108.7181 0.2001
v  94.2943 104.8711 5.8803
v  94.2943 108.7181 5.8803
v  91.0044 108.7181 6.7498
v  91.0044 104.8711 6.7498
v  91.0044 103.5812 0.2001
v  94.2943 103.5812 0.2001
v  94.2943 103.5812 1.3235
v  91.0044 103.5812 1.3235
v  96.2934 104.8711 0.2001
v  96.2934 108.7181 0.2001
v  96.2934 108.7181 1.3235
v  96.2934 104.8711 1.3235
v  94.2943 110.0080 0.2001
v  91.0044 110.0080 0.2001
v  91.0044 110.0080 1.3235
v  94.2943 110.0080 1.3235
v  89.0052 108.7181 0.2001
v  89.0052 104.8711 0.2001
v  89.0052 104.8711 1.3235
v  89.0052 108.7181 1.3235
v  94.2943 108.7181 1.3235
v  94.2943 104.8711 1.3235
v  91.0044 104.8711 1.3235
v  91.0044 108.7181 1.3235
v  96.2934 103.5812 0.2001
v  96.2934 103.5812 1.3235
v  89.0052 103.5812 1.3235
v  89.0052 103.5812 0.2001
v  89.0052 110.0080 0.2001
v  89.0052 110.0080 1.3235
v  96.2934 110.0080 1.3235
v  96.2934 110.0080 0.2001
v  94.2943 108.7181 4.3907
v  94.2943 104.8711 4.3907
v  91.0044 108.7181 4.3907
v  91.0044 104.8711 4.3907
v  78.1202 105.3775 4.3907
v  78.1202 105.3775 6.7498
v  78.1202 108.2117 6.7498
v  78.1202 108.2117 4.3907
v  7.9232 183.3774 1.1685
v  7.7728 183.3774 1.0817
v  7.6612 183.3774 0.9487
v  7.6018 183.3774 0.7855
v  7.6018 183.3774 0.6119
v  7.6612 183.3774 0.4487
v  7.7728 183.3774 0.3157
v  7.9232 183.3774 0.2288
v  8.0942 183.3774 0.1987
v  8.2652 183.3774 0.2288
v  8.4156 183.3774 0.3157
v  8.5272 183.3774 0.4487
v  8.5866 183.3774 0.6119
v  8.5866 183.3774 0.7855
v  8.5272 183.3774 0.9487
v  8.4156 183.3774 1.0817
v  8.2652 183.3774 1.1685
v  8.0942 183.3774 1.1987
v  8.2652 198.4801 1.1685
v  8.0942 198.4801 1.1987
v  8.4156 198.4801 1.0817
v  8.5272 198.4801 0.9487
v  8.5866 198.4801 0.7855
v  8.5866 198.4801 0.6119
v  8.5272 198.4801 0.4487
v  8.4156 198.4801 0.3157
v  8.2652 198.4801 0.2288
v  8.0942 198.4801 0.1987
v  7.9232 198.4801 0.2288
v  7.7728 198.4801 0.3157
v  7.6612 198.4801 0.4487
v  7.6018 198.4801 0.6119
v  7.6018 198.4801 0.7855
v  7.6612 198.4801 0.9487
v  7.7728 198.4801 1.0817
v  7.9232 198.4801 1.1685
v  7.9232 26.0463 1.1685
v  7.7728 26.0463 1.0817
v  7.6612 26.0463 0.9487
v  7.6018 26.0463 0.7855
v  7.6018 26.0463 0.6119
v  7.6612 26.0463 0.4487
v  7.7728 26.0463 0.3157
v  7.9232 26.0463 0.2289
v  8.0942 26.0463 0.1987
v  8.2652 26.0463 0.2289
v  8.4156 26.0463 0.3157
v  8.5272 26.0463 0.4487
v  8.5866 26.0463 0.6119
v  8.5866 26.0463 0.7855
v  8.5272 26.0463 0.9487
v  8.4156 26.0463 1.0817
v  8.2652 26.0463 1.1685
v  8.0942 26.0463 1.1987
v  8.2652 41.1490 1.1685
v  8.0942 41.1490 1.1987
v  8.4156 41.1490 1.0817
v  8.5272 41.1490 0.9487
v  8.5866 41.1490 0.7855
v  8.5866 41.1490 0.6119
v  8.5272 41.1490 0.4487
v  8.4156 41.1490 0.3157
v  8.2652 41.1490 0.2289
v  8.0942 41.1490 0.1987
v  7.9232 41.1490 0.2289
v  7.7728 41.1490 0.3157
v  7.6612 41.1490 0.4487
v  7.6018 41.1490 0.6119
v  7.6018 41.1490 0.7855
v  7.6612 41.1490 0.9487
v  7.7728 41.1490 1.0817
v  7.9232 41.1490 1.1685
# 132 vertices

vn -0.7071 0.0000 0.7071
vn 0.7071 0.0000 0.7071
vn 0.5774 -0.5774 -0.5774
vn -0.5774 -0.5774 -0.5774
vn 0.5774 0.5774 0.5774
vn -0.5774 0.5774 0.5773
vn 0.5774 -0.5774 0.5774
vn -0.5774 -0.5774 0.5774
vn 1.0000 0.0000 0.0000
vn 0.7071 0.7071 0.0000
vn -0.7071 0.7071 -0.0000
vn -1.0000 0.0000 -0.0000
vn 0.0000 0.0000 -1.0000
vn 0.6385 -0.5922 0.4916
vn 0.6385 0.5922 0.4916
vn 0.0807 0.6845 0.7245
vn 0.0807 -0.6845 0.7245
vn 0.0000 -0.7071 -0.7071
vn -0.0000 -0.7071 0.7071
vn 0.7071 0.0000 -0.7071
vn 0.0000 0.7071 -0.7071
vn -0.0000 0.7071 0.7071
vn -0.7071 0.0000 -0.7071
vn 0.3015 0.3015 0.9045
vn 0.3015 -0.3015 0.9045
vn -0.3015 -0.3015 0.9045
vn -0.3015 0.3015 0.9045
vn -0.5774 0.5774 -0.5774
vn -0.5774 0.5774 0.5774
vn 0.5774 0.5774 -0.5774
vn 0.7071 0.7071 -0.0000
vn 0.7071 -0.7071 0.0000
vn -0.3130 0.9032 -0.2936
vn -0.3130 -0.9032 -0.2936
vn -0.5875 -0.5649 -0.5794
vn -0.5875 -0.5649 0.5794
vn -0.5875 0.5649 0.5794
vn -0.5875 0.5649 -0.5794
vn -0.2539 -0.6700 0.6976
vn -0.4772 -0.6700 0.5687
vn -0.6429 -0.6700 0.3712
vn -0.7311 -0.6700 0.1289
vn -0.7311 -0.6700 -0.1289
vn -0.6429 -0.6700 -0.3712
vn -0.4772 -0.6700 -0.5687
vn -0.2539 -0.6700 -0.6976
vn 0.0000 -0.6700 -0.7423
vn 0.2539 -0.6700 -0.6976
vn 0.4772 -0.6700 -0.5687
vn 0.6429 -0.6700 -0.3712
vn 0.7311 -0.6700 -0.1289
vn 0.7311 -0.6700 0.1289
vn 0.6429 -0.6700 0.3712
vn 0.4772 -0.6700 0.5687
vn 0.2539 -0.6700 0.6976
vn -0.0000 -0.6700 0.7423
vn 0.2539 0.6700 0.6976
vn -0.0000 0.6700 0.7423
vn 0.4772 0.6700 0.5687
vn 0.6429 0.6700 0.3712
vn 0.7311 0.6700 0.1289
vn 0.7311 0.6700 -0.1289
vn 0.6429 0.6700 -0.3712
vn 0.4772 0.6700 -0.5687
vn 0.2539 0.6700 -0.6976
vn 0.0000 0.6700 -0.7423
vn -0.2539 0.6700 -0.6976
vn -0.4772 0.6700 -0.5687
vn -0.6429 0.6700 -0.3712
vn -0.7311 0.6700 -0.1289
vn -0.7311 0.6700 0.1289
vn -0.6429 0.6700 0.3712
vn -0.4772 0.6700 0.5687
vn -0.2539 0.6700 0.6976
# 74 vertex normals

vt -2.8563 -1.0000 0.3572
vt -2.7803 -1.0000 0.3572
vt -2.7803 1.1340 0.3572
vt -1.8653 1.1340 0.3572
vt -1.8653 -1.0000 0.3572
vt -1.7893 -1.0000 0.3572
vt -1.7893 1.2100 0.3572
vt -2.8563 1.2100 0.3572
vt 0.3572 -1.0000 -2.7803
vt 0.3822 -1.0000 -2.7803
vt 0.3822 1.1340 -2.7803
vt 0.3572 1.1340 -2.7803
vt 3.7803 0.3572 1.1340
vt 3.7803 0.3822 1.1340
vt 2.8653 0.3822 1.1340
vt 2.8653 0.3572 1.1340
vt 0.6428 1.1340 -1.8653
vt 0.6178 1.1340 -1.8653
vt 0.6178 -1.0000 -1.8653
vt 0.6428 -1.0000 -1.8653
vt -1.8653 -1.0000 0.3822
vt -1.8653 1.1340 0.3822
vt -2.7803 1.1340 0.3822
vt -2.7803 -1.0000 0.3822
vt 0.3572 1.2100 -1.7893
vt 0.3572 -1.0000 -1.7893
vt 0.3822 -1.0000 -1.7893
vt 0.3822 1.2100 -1.7893
vt 0.6428 -1.0000 -2.8563
vt 0.6428 1.2100 -2.8563
vt 0.6178 1.2100 -2.8563
vt 0.6178 -1.0000 -2.8563
vt -2.8563 0.3572 1.2100
vt -1.7893 0.3572 1.2100
vt -1.7893 0.3822 1.2100
vt -2.8563 0.3822 1.2100
vt 2.9134 0.0872 0.3822
vt 2.9134 0.0487 0.3822
vt 2.9463 0.0487 0.3822
vt 2.9463 0.0872 0.3822
vt -1.9134 0.0487 0.3254
vt -1.9134 0.0872 0.3254
vt -1.9463 0.0872 0.3167
vt -1.9463 0.0487 0.3167
vt 2.9463 0.3822 0.0358
vt 2.9134 0.3822 0.0358
vt 2.9134 0.3710 0.0358
vt 2.9463 0.3710 0.0358
vt 0.3822 0.0487 -1.8934
vt 0.3822 0.0872 -1.8934
vt 0.3710 0.0872 -1.8934
vt 0.3710 0.0487 -1.8934
vt -1.9134 0.3822 0.1001
vt -1.9463 0.3822 0.1001
vt -1.9463 0.3710 0.1001
vt -1.9134 0.3710 0.1001
vt 0.6178 0.0872 -1.9663
vt 0.6178 0.0487 -1.9663
vt 0.6290 0.0487 -1.9663
vt 0.6290 0.0872 -1.9663
vt 2.8934 0.0872 0.3822
vt 2.8934 0.0487 0.3822
vt 2.9663 0.0487 0.3822
vt 2.9663 0.0872 0.3822
vt -1.8934 0.0487 0.3710
vt -1.8934 0.0872 0.3710
vt -1.9134 0.0872 0.3710
vt -1.9134 0.0487 0.3710
vt -1.9663 0.0872 0.3710
vt -1.9663 0.0487 0.3710
vt -1.9463 0.0487 0.3710
vt -1.9463 0.0872 0.3710
vt 2.8934 0.3822 0.0358
vt 2.8934 0.3710 0.0358
vt 2.9663 0.3710 0.0358
vt 2.9663 0.3822 0.0358
vt -1.9663 0.3822 0.1001
vt -1.9663 0.3710 0.1001
vt -1.8934 0.3710 0.1001
vt -1.8934 0.3822 0.1001
vt 2.9134 0.0358 0.3822
vt 2.9463 0.0358 0.3822
vt 2.9463 0.1001 0.3822
vt 2.9134 0.1001 0.3822
vt -1.9134 0.1001 0.3710
vt -1.9463 0.1001 0.3710
vt -1.9463 0.0358 0.3710
vt -1.9134 0.0358 0.3710
vt 0.3822 0.1001 -1.8934
vt 0.3710 0.1001 -1.8934
vt 0.3710 0.0358 -1.8934
vt 0.3822 0.0358 -1.8934
vt 0.6178 0.0358 -1.9663
vt 0.6290 0.0358 -1.9663
vt 0.6290 0.1001 -1.9663
vt 0.6178 0.1001 -1.9663
vt 2.8934 0.0358 0.3822
vt 2.8934 0.1001 0.3822
vt 2.9663 0.1001 0.3822
vt 2.9663 0.0358 0.3822
vt -1.8934 0.1001 0.3710
vt -1.8934 0.0358 0.3710
vt -1.9663 0.0358 0.3710
vt -1.9663 0.1001 0.3710
vt 0.3710 0.0487 -1.9134
vt 0.3710 0.0872 -1.9134
vt 0.3403 0.0872 -1.9134
vt 0.3403 0.0487 -1.9134
vt -1.9134 0.3710 0.0872
vt -1.9463 0.3710 0.0872
vt -1.9463 0.3403 0.0872
vt -1.9134 0.3403 0.0872
vt 0.6290 0.0872 -1.9463
vt 0.6290 0.0487 -1.9463
vt 0.6597 0.0487 -1.9463
vt 0.6597 0.0872 -1.9463
vt 2.9463 0.3710 0.0487
vt 2.9134 0.3710 0.0487
vt 2.9134 0.3403 0.0487
vt 2.9463 0.3403 0.0487
vt 0.3254 0.0872 -1.9134
vt 0.3254 0.0487 -1.9134
vt -1.9463 0.3167 0.0872
vt -1.9134 0.3254 0.0872
vt 0.6597 0.0538 -2.0751
vt 0.6833 0.0538 -2.0751
vt 0.6833 0.0821 -2.0751
vt 0.6597 0.0821 -2.0751
vt 2.9134 0.3254 0.0487
vt 2.9463 0.3167 0.0487
vt -2.0751 0.0821 0.3167
vt -2.0751 0.0538 0.3167
vt -2.0751 0.3403 0.0821
vt -2.0751 0.3167 0.0821
vt 2.9463 0.0872 0.3403
vt 2.9463 0.0487 0.3403
vt 3.0751 0.0538 0.3403
vt 3.0751 0.0821 0.3403
vt 3.0751 0.3167 0.0538
vt 3.0751 0.3403 0.0538
vt 3.7771 0.3726 0.8338
vt 3.7786 0.3734 0.8338
vt 3.7797 0.3748 0.8338
vt 3.7803 0.3764 0.8338
vt 3.7803 0.3781 0.8338
vt 3.7797 0.3798 0.8338
vt 3.7786 0.3811 0.8338
vt 3.7771 0.3820 0.8338
vt 3.7754 0.3823 0.8338
vt 3.7737 0.3820 0.8338
vt 3.7722 0.3811 0.8338
vt 3.7710 0.3798 0.8338
vt 3.7705 0.3781 0.8338
vt 3.7705 0.3764 0.8338
vt 3.7710 0.3748 0.8338
vt 3.7722 0.3734 0.8338
vt 3.7737 0.3726 0.8338
vt 3.7754 0.3723 0.8338
vt -2.7754 0.8338 0.3723
vt -2.7737 0.8338 0.3726
vt -2.7737 0.9848 0.3726
vt -2.7754 0.9848 0.3723
vt -2.7722 0.8338 0.3734
vt -2.7722 0.9848 0.3734
vt 0.3734 0.8338 -2.7722
vt 0.3748 0.8338 -2.7710
vt 0.3748 0.9848 -2.7710
vt 0.3734 0.9848 -2.7722
vt 0.3764 0.8338 -2.7705
vt 0.3764 0.9848 -2.7705
vt 0.3781 0.8338 -2.7705
vt 0.3781 0.9848 -2.7705
vt 0.3798 0.8338 -2.7710
vt 0.3798 0.9848 -2.7710
vt 0.3811 0.8338 -2.7722
vt 0.3811 0.9848 -2.7722
vt 3.7722 0.8338 0.3811
vt 3.7737 0.8338 0.3820
vt 3.7737 0.9848 0.3820
vt 3.7722 0.9848 0.3811
vt 3.7754 0.8338 0.3823
vt 3.7754 0.9848 0.3823
vt 3.7771 0.8338 0.3820
vt 3.7771 0.9848 0.3820
vt 3.7786 0.8338 0.3811
vt 3.7786 0.9848 0.3811
vt 0.6189 0.8338 -2.7786
vt 0.6202 0.8338 -2.7797
vt 0.6202 0.9848 -2.7797
vt 0.6189 0.9848 -2.7786
vt 0.6219 0.8338 -2.7803
vt 0.6219 0.9848 -2.7803
vt 0.6236 0.8338 -2.7803
vt 0.6236 0.9848 -2.7803
vt 0.6252 0.8338 -2.7797
vt 0.6252 0.9848 -2.7797
vt 0.6266 0.8338 -2.7786
vt 0.6266 0.9848 -2.7786
vt -2.7786 0.8338 0.3734
vt -2.7771 0.8338 0.3726
vt -2.7771 0.9848 0.3726
vt -2.7786 0.9848 0.3734
vt -2.7771 0.3726 0.9848
vt -2.7754 0.3723 0.9848
vt -2.7737 0.3726 0.9848
vt -2.7722 0.3734 0.9848
vt -2.7710 0.3748 0.9848
vt -2.7705 0.3764 0.9848
vt -2.7705 0.3781 0.9848
vt -2.7710 0.3798 0.9848
vt -2.7722 0.3811 0.9848
vt -2.7737 0.3820 0.9848
vt -2.7754 0.3823 0.9848
vt -2.7771 0.3820 0.9848
vt -2.7786 0.3811 0.9848
vt -2.7797 0.3798 0.9848
vt -2.7803 0.3781 0.9848
vt -2.7803 0.3764 0.9848
vt -2.7797 0.3748 0.9848
vt -2.7786 0.3734 0.9848
vt 3.7771 0.3726 -0.7395
vt 3.7786 0.3734 -0.7395
vt 3.7797 0.3748 -0.7395
vt 3.7803 0.3764 -0.7395
vt 3.7803 0.3781 -0.7395
vt 3.7797 0.3798 -0.7395
vt 3.7786 0.3811 -0.7395
vt 3.7771 0.3820 -0.7395
vt 3.7754 0.3823 -0.7395
vt 3.7737 0.3820 -0.7395
vt 3.7722 0.3811 -0.7395
vt 3.7710 0.3798 -0.7395
vt 3.7705 0.3781 -0.7395
vt 3.7705 0.3764 -0.7395
vt 3.7710 0.3748 -0.7395
vt 3.7722 0.3734 -0.7395
vt 3.7737 0.3726 -0.7395
vt 3.7754 0.3723 -0.7395
vt -2.7754 -0.7395 0.3723
vt -2.7737 -0.7395 0.3726
vt -2.7737 -0.5885 0.3726
vt -2.7754 -0.5885 0.3723
vt -2.7722 -0.7395 0.3734
vt -2.7722 -0.5885 0.3734
vt 0.3734 -0.7395 -2.7722
vt 0.3748 -0.7395 -2.7710
vt 0.3748 -0.5885 -2.7710
vt 0.3734 -0.5885 -2.7722
vt 0.3764 -0.7395 -2.7705
vt 0.3764 -0.5885 -2.7705
vt 0.3781 -0.7395 -2.7705
vt 0.3781 -0.5885 -2.7705
vt 0.3798 -0.7395 -2.7710
vt 0.3798 -0.5885 -2.7710
vt 0.3811 -0.7395 -2.7722
vt 0.3811 -0.5885 -2.7722
vt 3.7722 -0.7395 0.3811
vt 3.7737 -0.7395 0.3820
vt 3.7737 -0.5885 0.3820
vt 3.7722 -0.5885 0.3811
vt 3.7754 -0.7395 0.3823
vt 3.7754 -0.5885 0.3823
vt 3.7771 -0.7395 0.3820
vt 3.7771 -0.5885 0.3820
vt 3.7786 -0.7395 0.3811
vt 3.7786 -0.5885 0.3811
vt 0.6189 -0.7395 -2.7786
vt 0.6202 -0.7395 -2.7797
vt 0.6202 -0.5885 -2.7797
vt 0.6189 -0.5885 -2.7786
vt 0.6219 -0.7395 -2.7803
vt 0.6219 -0.5885 -2.7803
vt 0.6236 -0.7395 -2.7803
vt 0.6236 -0.5885 -2.7803
vt 0.6252 -0.7395 -2.7797
vt 0.6252 -0.5885 -2.7797
vt 0.6266 -0.7395 -2.7786
vt 0.6266 -0.5885 -2.7786
vt -2.7786 -0.7395 0.3734
vt -2.7771 -0.7395 0.3726
vt -2.7771 -0.5885 0.3726
vt -2.7786 -0.5885 0.3734
vt -2.7771 0.3726 -0.5885
vt -2.7754 0.3723 -0.5885
vt -2.7737 0.3726 -0.5885
vt -2.7722 0.3734 -0.5885
vt -2.7710 0.3748 -0.5885
vt -2.7705 0.3764 -0.5885
vt -2.7705 0.3781 -0.5885
vt -2.7710 0.3798 -0.5885
vt -2.7722 0.3811 -0.5885
vt -2.7737 0.3820 -0.5885
vt -2.7754 0.3823 -0.5885
vt -2.7771 0.3820 -0.5885
vt -2.7786 0.3811 -0.5885
vt -2.7797 0.3798 -0.5885
vt -2.7803 0.3781 -0.5885
vt -2.7803 0.3764 -0.5885
vt -2.7797 0.3748 -0.5885
vt -2.7786 0.3734 -0.5885
# 300 texture coords

o NewRoom_Door
g NewRoom_Door
usemtl wire_160160160
s 8
f 1/1/1 2/2/2 3/3/3 4/4/4 5/5/1 6/6/2 7/7/5 8/8/6 
s 2
f 2/9/2 9/10/2 10/11/7 3/12/3 
s 1
f 3/13/3 10/14/7 11/15/8 4/16/4 
s 2
f 4/17/4 11/18/8 12/19/1 5/20/1 
s off
f 12/21/1 11/22/8 10/23/7 9/24/2 
f 7/25/5 6/26/2 13/27/9 14/28/10 
f 1/29/1 8/30/6 15/31/11 16/32/12 
f 8/33/6 7/34/5 14/35/10 15/36/11 
s 2
f 17/37/13 18/38/13 19/39/13 20/40/13 
s 4
f 21/41/14 22/42/15 23/43/16 24/44/17 
s 8
f 25/45/18 26/46/18 27/47/19 28/48/19 
s 16
f 29/49/20 30/50/20 31/51/2 32/52/2 
s 32
f 33/53/21 34/54/21 35/55/22 36/56/22 
s 64
f 37/57/23 38/58/23 39/59/1 40/60/1 
s 2
f 30/61/20 29/62/20 18/38/13 17/37/13 
f 38/63/23 37/64/23 20/40/13 19/39/13 
s 4
f 32/65/2 31/66/2 41/67/24 42/68/25 
f 40/69/1 39/70/1 43/71/26 44/72/27 
s 8
f 26/46/18 45/73/3 46/74/7 27/47/19 
f 28/48/19 47/75/8 48/76/4 25/45/18 
s 32
f 34/54/21 49/77/28 50/78/29 35/55/22 
f 36/56/22 51/79/5 52/80/30 33/53/21 
s 2
f 18/38/13 26/81/18 25/82/18 19/39/13 
f 20/40/13 34/83/21 33/84/21 17/37/13 
s 4
f 41/67/24 36/85/22 35/86/22 44/72/27 
f 43/71/26 28/87/19 27/88/19 42/68/25 
s 16
f 30/50/20 52/89/30 51/90/5 31/51/2 
f 32/52/2 46/91/7 45/92/3 29/49/20 
s 64
f 38/58/23 48/93/4 47/94/8 39/59/1 
f 40/60/1 50/95/29 49/96/28 37/57/23 
s 2
f 29/62/20 45/97/3 26/81/18 18/38/13 
f 17/37/13 33/84/21 52/98/30 30/61/20 
f 37/64/23 49/99/28 34/83/21 20/40/13 
f 19/39/13 25/82/18 48/100/4 38/63/23 
s 4
f 31/66/2 51/101/5 36/85/22 41/67/24 
f 42/68/25 27/88/19 46/102/7 32/65/2 
f 39/70/1 47/103/8 28/87/19 43/71/26 
f 44/72/27 35/86/22 50/104/29 40/69/1 
s off
f 42/105/25 41/106/24 53/107/31 54/108/32 
f 41/109/24 44/110/27 55/111/33 53/112/31 
f 44/113/27 43/114/26 56/115/34 55/116/33 
f 43/117/26 42/118/25 54/119/32 56/120/34 
f 53/107/31 22/121/15 21/122/14 54/108/32 
f 55/111/33 23/123/16 22/124/15 53/112/31 
f 57/125/35 58/126/36 59/127/37 60/128/38 
f 54/119/32 21/129/14 24/130/17 56/120/34 
f 24/44/17 23/43/16 59/131/37 58/132/36 
f 23/123/16 55/111/33 60/133/38 59/134/37 
f 55/135/33 56/136/34 57/137/35 60/138/38 
f 56/120/34 24/130/17 58/139/36 57/140/35 
s 1
f 61/141/39 62/142/40 63/143/41 64/144/42 65/145/43 66/146/44 67/147/45 68/148/46 69/149/47 70/150/48 71/151/49 72/152/50 73/153/51 74/154/52 75/155/53 76/156/54 77/157/55 78/158/56 
s 8
f 78/159/56 77/160/55 79/161/57 80/162/58 
f 77/160/55 76/163/54 81/164/59 79/161/57 
f 76/165/54 75/166/53 82/167/60 81/168/59 
f 75/166/53 74/169/52 83/170/61 82/167/60 
f 74/169/52 73/171/51 84/172/62 83/170/61 
f 73/171/51 72/173/50 85/174/63 84/172/62 
f 72/173/50 71/175/49 86/176/64 85/174/63 
f 71/177/49 70/178/48 87/179/65 86/180/64 
f 70/178/48 69/181/47 88/182/66 87/179/65 
f 69/181/47 68/183/46 89/184/67 88/182/66 
f 68/183/46 67/185/45 90/186/68 89/184/67 
f 67/187/45 66/188/44 91/189/69 90/190/68 
f 66/188/44 65/191/43 92/192/70 91/189/69 
f 65/191/43 64/193/42 93/194/71 92/192/70 
f 64/193/42 63/195/41 94/196/72 93/194/71 
f 63/195/41 62/197/40 95/198/73 94/196/72 
f 62/199/40 61/200/39 96/201/74 95/202/73 
f 61/200/39 78/159/56 80/162/58 96/201/74 
s 1
f 96/203/74 80/204/58 79/205/57 81/206/59 82/207/60 83/208/61 84/209/62 85/210/63 86/211/64 87/212/65 88/213/66 89/214/67 90/215/68 91/216/69 92/217/70 93/218/71 94/219/72 95/220/73 
f 97/221/39 98/222/40 99/223/41 100/224/42 101/225/43 102/226/44 103/227/45 104/228/46 105/229/47 106/230/48 107/231/49 108/232/50 109/233/51 110/234/52 111/235/53 112/236/54 113/237/55 114/238/56 
s 8
f 114/239/56 113/240/55 115/241/57 116/242/58 
f 113/240/55 112/243/54 117/244/59 115/241/57 
f 112/245/54 111/246/53 118/247/60 117/248/59 
f 111/246/53 110/249/52 119/250/61 118/247/60 
f 110/249/52 109/251/51 120/252/62 119/250/61 
f 109/251/51 108/253/50 121/254/63 120/252/62 
f 108/253/50 107/255/49 122/256/64 121/254/63 
f 107/257/49 106/258/48 123/259/65 122/260/64 
f 106/258/48 105/261/47 124/262/66 123/259/65 
f 105/261/47 104/263/46 125/264/67 124/262/66 
f 104/263/46 103/265/45 126/266/68 125/264/67 
f 103/267/45 102/268/44 127/269/69 126/270/68 
f 102/268/44 101/271/43 128/272/70 127/269/69 
f 101/271/43 100/273/42 129/274/71 128/272/70 
f 100/273/42 99/275/41 130/276/72 129/274/71 
f 99/275/41 98/277/40 131/278/73 130/276/72 
f 98/279/40 97/280/39 132/281/74 131/282/73 
f 97/280/39 114/239/56 116/242/58 132/281/74 
s 1
f 132/283/74 116/284/58 115/285/57 117/286/59 118/287/60 119/288/61 120/289/62 121/290/63 122/291/64 123/292/65 124/293/66 125/294/67 126/295/68 127/296/69 128/297/70 129/298/71 130/299/72 131/300/73 
# 90 polygons

