# 3ds Max Wavefront OBJ Exporter v0.97b - (c)2007 guruware
# File Created: 11.01.2020 19:15:13

mtllib LivingRoom_WallScale.mtl

#
# object LivingRoom_WallA
#

v  337.8123 349.9999 -20.0000
v  687.9998 349.9999 -20.0000
v  687.9999 261.5000 -20.0000
v  337.8123 261.5000 -20.0000
v  907.9999 349.9999 -20.0000
v  1212.7756 349.9999 -20.0000
v  1212.7756 261.5000 -20.0000
v  907.9999 261.5000 -20.0000
v  687.9999 91.5000 -20.0000
v  337.8123 91.5000 -20.0000
v  1212.7756 91.5000 -20.0000
v  907.9999 91.5000 -20.0000
v  687.9998 -0.0000 -20.0000
v  337.8123 -0.0000 -20.0000
v  1212.7756 -0.0000 -20.0000
v  907.9999 -0.0000 -20.0000
v  1212.7754 -0.0000 -602.8363
v  1212.7755 91.5000 -602.8363
v  908.0000 261.5000 -0.0000
v  688.0001 261.5000 -0.0000
v  688.0001 91.5000 -0.0000
v  908.0000 91.5000 -0.0000
v  337.8124 -0.0000 -602.8364
v  337.8124 91.5000 -602.8364
v  1212.7754 349.9999 -602.8363
v  1212.7755 261.5000 -602.8363
v  337.8124 349.9999 -602.8364
v  337.8124 261.5000 -602.8364
# 28 vertices

vn 0.7071 0.0000 -0.7071
vn 0.0000 0.0000 -1.0000
vn 0.3015 -0.3015 -0.9045
vn -0.7071 0.0000 -0.7071
vn -0.3015 -0.3015 -0.9045
vn 0.3015 0.3015 -0.9045
vn -0.7071 -0.0000 -0.7071
vn -0.3015 0.3015 -0.9045
vn 0.0000 -0.0000 -1.0000
vn -0.7071 0.0000 0.7071
vn -0.7071 -0.7071 0.0000
vn 0.7071 -0.7071 -0.0000
vn 0.7071 0.7071 -0.0000
vn -0.7071 0.7071 0.0000
vn 0.7071 0.0000 0.7071
vn -0.7071 -0.0000 0.7071
# 16 vertex normals

vt 4.8748 2.2500 -2.3142
vt 1.3729 2.2500 -2.3142
vt 1.3729 1.3650 -2.3142
vt 4.8748 1.3650 -2.3142
vt -0.8271 2.2500 -2.3142
vt -3.8748 2.2500 -2.3142
vt -3.8748 1.3650 -2.3142
vt -0.8271 1.3650 -2.3142
vt 1.3729 -0.3350 -2.3142
vt 4.8748 -0.3350 -2.3142
vt -3.8748 -0.3350 -2.3142
vt -0.8271 -0.3350 -2.3142
vt 1.3729 -1.2500 -2.3142
vt 4.8748 -1.2500 -2.3142
vt -3.8748 -1.2500 -2.3142
vt -0.8271 -1.2500 -2.3142
vt -2.5142 -1.2500 4.8748
vt 3.3142 -1.2500 4.8748
vt 3.3142 -0.3350 4.8748
vt -2.5142 -0.3350 4.8748
vt 1.3729 -2.3142 1.3650
vt -0.8271 -2.3142 1.3650
vt -0.8271 -2.5142 1.3650
vt 1.3729 -2.5142 1.3650
vt -2.5142 -0.3350 -0.3729
vt -2.3142 -0.3350 -0.3729
vt -2.3142 1.3650 -0.3729
vt -2.5142 1.3650 -0.3729
vt 1.8271 -2.3142 -0.3350
vt -0.3729 -2.3142 -0.3350
vt -0.3729 -2.5142 -0.3350
vt 1.8271 -2.5142 -0.3350
vt 3.3142 1.3650 1.8271
vt 3.3142 -0.3350 1.8271
vt 3.5142 -0.3350 1.8271
vt 3.5142 1.3650 1.8271
vt -3.8748 -1.2500 3.5142
vt 4.8748 -1.2500 3.5142
vt 4.8748 -0.3350 3.5142
vt -3.8748 -0.3350 3.5142
vt -2.3142 -1.2500 -3.8748
vt 3.5142 -1.2500 -3.8748
vt 3.5142 -0.3350 -3.8748
vt -2.3142 -0.3350 -3.8748
vt 3.3142 1.3650 4.8748
vt 3.3142 2.2500 4.8748
vt -2.5142 2.2500 4.8748
vt -2.5142 1.3650 4.8748
vt 4.8748 1.3650 3.5142
vt 4.8748 2.2500 3.5142
vt -3.8748 2.2500 3.5142
vt -3.8748 1.3650 3.5142
vt 3.5142 1.3650 -3.8748
vt 3.5142 2.2500 -3.8748
vt -2.3142 2.2500 -3.8748
vt -2.3142 1.3650 -3.8748
# 56 texture coords

o LivingRoom_WallA
g LivingRoom_WallA
usemtl wire_160160160
s 16
f 1/1/1 2/2/2 3/3/3 4/4/1 
f 5/5/2 6/6/4 7/7/4 8/8/5 
f 2/2/2 5/5/2 8/8/5 3/3/3 
f 3/3/3 9/9/6 10/10/1 4/4/1 
f 7/7/4 11/11/7 12/12/8 8/8/5 
f 9/9/6 13/13/9 14/14/1 10/10/1 
f 11/11/7 15/15/7 16/16/2 12/12/8 
f 12/12/8 16/16/2 13/13/9 9/9/6 
s 2
f 17/17/10 15/18/7 11/19/7 18/20/10 
s 1
f 3/21/3 8/22/5 19/23/11 20/24/12 
s 2
f 21/25/13 9/26/6 3/27/3 20/28/12 
s 1
f 12/29/8 9/30/6 21/31/13 22/32/14 
s 2
f 8/33/5 12/34/8 22/35/14 19/36/11 
s off
f 23/37/15 17/38/10 18/39/10 24/40/15 
f 14/41/1 23/42/15 24/43/15 10/44/1 
s 2
f 7/45/4 6/46/4 25/47/16 26/48/16 
s off
f 26/49/16 25/50/16 27/51/15 28/52/15 
f 28/53/15 27/54/15 1/55/1 4/56/1 
s 2
f 11/19/7 7/45/4 26/48/16 18/20/10 
s off
f 18/39/10 26/49/16 28/52/15 24/40/15 
f 24/43/15 28/53/15 4/56/1 10/44/1 
# 21 polygons

